<?xml version="1.0" encoding="UTF-8" standalone="no"?>
<!DOCTYPE svg PUBLIC "-//W3C//DTD SVG 1.1//EN" "http://www.w3.org/Graphics/SVG/1.1/DTD/svg11.dtd">
<svg width="100%" height="100%" viewBox="0 0 154 24" version="1.1" xmlns="http://www.w3.org/2000/svg" xmlns:xlink="http://www.w3.org/1999/xlink" xml:space="preserve" xmlns:serif="http://www.serif.com/" style="fill-rule:evenodd;clip-rule:evenodd;stroke-linejoin:round;stroke-miterlimit:2;">
    <g id="Layer1">
        <g transform="matrix(1.77778,0,0,1.94565,-83.3333,-22.0489)">
            <clipPath id="_clip1">
                <path d="M84,15.236C84,13.198 82.189,11.543 79.958,11.543L61.042,11.543C58.811,11.543 57,13.198 57,15.236L57,19.764C57,21.802 58.811,23.457 61.042,23.457L79.958,23.457C82.189,23.457 84,21.802 84,19.764L84,15.236Z"/>
            </clipPath>
            <g clip-path="url(#_clip1)">
                <circle cx="70.5" cy="17.5" r="13.5" style="fill:rgb(0,245,140);"/>
            </g>
        </g>
        <g transform="matrix(1,0,0,1,15.5,0.0419999)">
            <text x="4px" y="22.368px" style="font-family:'Bison-Bold', 'Bison';font-weight:700;font-size:30px;fill:white;">C<tspan x="16.45px 22.9px 34.54px " y="22.368px 22.368px 22.368px ">ity</tspan></text>
            <text x="57.85px" y="22.368px" style="font-family:'Bison-Bold', 'Bison';font-weight:700;font-size:30px;fill:rgb(0,245,140);">T<tspan x="69.19px 81.76px 94.57px 107.29px " y="22.368px 22.368px 22.368px 22.368px ">ours</tspan></text>
        </g>
    </g>
</svg>
